{"title":"Secrets in the Dust S01E06 480p t2b","uid":11879960,"size":338288451,"categoryP":"video","categoryS":"tv_shows","magnet":"?xt=urn:btih:da347315bb16224a6c1d255eb05181923563d722&amp;dn=Secrets+in+the+Dust+S01E06+480p+t2b&amp;tr=udp%3A%2F%2Ftracker.openbittorrent.com%3A80&amp;tr=udp%3A%2F%2Fopen.demonii.com%3A1337&amp;tr=udp%3A%2F%2Ftracker.coppersurfer.tk%3A6969&amp;tr=udp%3A%2F%2Fexodus.desync.com%3A6969","seeders":1,"leechers":0,"uploader":"toots2boots","files":2,"time":1430612623,"description":"Secrets in the Dust: Through its ability to make us dream and marvel at the achievements of the past, archaeology has evolved from an inconspicuous discipline based on ruins and fragments into one of the most attention-grabbing fields of scientific study today. This series presents not only some of the most groundbreaking archaeological discoveries, but also the turbulent history of archaeology itself, with its adventurers and grave robbers, its embittered rivals and passionate visionaries\nThe story of Archaeology is just as dramatic as the great civilizations and conflicts it has helped to uncover. This series recounts twelve great leaps forward in our understanding of human history -- through the work of men and women who took great risks in the toughest conditions, against fierce opposition and competition.\n\nGeneral\nComplete name                            : G:Torrent uploadSecrets.In.The.Dust.Collection.1.06of12.Egypt.Finding The.Pharaohs.480p.HDTV.x264.AAC.t2bSecrets.In.The.Dust.Collection.1.06of12.Egypt.Finding.The.Pharaohs.480p.HDTV.x264.AAC.t2b.mp4\nFormat                                   : MPEG-4\nFormat profile                           : Base Media\nCodec ID                                 : isom\nFile size                                : 323 MiB\nDuration                                 : 52mn 8s\nOverall bit rate                         : 865 Kbps\nWriting application                      : Lavf54.63.104\n\nVideo\nID                                       : 1\nFormat                                   : AVC\nFormat/Info                              : Advanced Video Codec\nFormat profile                           : &lt;a class=&quot;__cf_email__&quot; href=&quot;/cdn-cgi/l/email-protection&quot; data-cfemail=&quot;bbf3d2dcd3fbf788958b&quot;&gt;[email&amp;#160;protected]&lt;/a&gt;&lt;script cf-hash='f9e31' type=&quot;text/javascript&quot;&gt;\n/* &lt;![CDATA[ */!function(){try{var t=&quot;currentScript&quot;in document?document.currentScript:function(){for(var t=document.getElementsByTagName(&quot;script&quot;),e=t.length;e--;)if(t[e].getAttribute(&quot;cf-hash&quot;))return t[e]}();if(t&amp;&amp;t.previousSibling){var e,r,n,i,c=t.previousSibling,a=c.getAttribute(&quot;data-cfemail&quot;);if(a){for(e=&quot;&quot;,r=parseInt(a.substr(0,2),16),n=2;a.length-n;n+=2)i=parseInt(a.substr(n,2),16)^r,e+=String.fromCharCode(i);e=document.createTextNode(e),c.parentNode.replaceChild(e,c)}}}catch(u){}}();/* ]]&gt; */&lt;/script&gt;\nFormat settings, CABAC                   : Yes\nFormat settings, ReFrames                : 4 frames\nCodec ID                                 : avc1\nCodec ID/Info                            : Advanced Video Coding\nDuration                                 : 52mn 8s\nBit rate                                 : 700 Kbps\nWidth                                    : 852 pixels\nHeight                                   : 480 pixels\nDisplay aspect ratio                     : 16:9\nOriginal display aspect ratio            : 3.151\nFrame rate mode                          : Constant\nFrame rate                               : 23.976 fps\nColor space                              : YUV\nChroma subsampling                       : 4:2:0\nBit depth                                : 8 bits\nScan type                                : Progressive\nBits/(Pixel*Frame)                       : 0.071\nStream size                              : 261 MiB (81%)\nWriting library                          : x264 core 123 r2189 35cf912\nEncoding settings                        : cabac=1 / ref=3 / deblock=1:0:0 / analyse=0x3:0x133 / me=hex / subme=7 / psy=1 / psy_rd=1.00:0.00 / mixed_ref=1 / me_range=16 / chroma_me=1 / trellis=1 / 8x8dct=1 / cqm=0 / deadzone=21,11 / fast_pskip=1 / chroma_qp_offset=-2 / threads=3 / sliced_threads=0 / nr=0 / decimate=1 / interlaced=0 / bluray_compat=0 / constrained_intra=0 / bframes=3 / b_pyramid=2 / b_adapt=1 / b_bias=0 / direct=1 / weightb=1 / open_gop=0 / weightp=2 / keyint=250 / keyint_min=25 / scenecut=40 / intra_refresh=0 / rc_lookahead=40 / rc=abr / mbtree=1 / bitrate=700 / ratetol=1.0 / qcomp=0.60 / qpmin=10 / qpmax=51 / qpstep=4 / ip_ratio=1.40 / aq=1:1.00\n\nAudio\nID                                       : 2\nFormat                                   : AAC\nFormat/Info                              : Advanced Audio Codec\nFormat profile                           : LC\nCodec ID                                 : 40\nDuration                                 : 52mn 8s\nBit rate mode                            : Constant\nBit rate                                 : 160 Kbps\nChannel(s)                               : 2 channels\nChannel positions                        : Front: L R\nSampling rate                            : 48.0 KHz\nCompression mode                         : Lossy\nStream size                              : 59.7 MiB (18%)\nLanguage                                 : unk","torrent":{"xt":"urn:btih:da347315bb16224a6c1d255eb05181923563d722","amp;dn":"Secrets+in+the+Dust+S01E06+480p+t2b","amp;tr":["udp%3A%2F%2Ftracker.openbittorrent.com%3A80","udp%3A%2F%2Fopen.demonii.com%3A1337","udp%3A%2F%2Ftracker.coppersurfer.tk%3A6969","udp%3A%2F%2Fexodus.desync.com%3A6969"],"infoHash":"da347315bb16224a6c1d255eb05181923563d722","infoHashBuffer":{"type":"Buffer","data":[218,52,115,21,187,22,34,74,108,29,37,94,176,81,129,146,53,99,215,34]},"announce":[],"urlList":[]}}